<svg width="164" height="121" viewBox="0 0 164 121" fill="none" xmlns="http://www.w3.org/2000/svg">
<path d="M163.051 3.20129C162.959 1.82368 161.767 0.781916 160.389 0.874444C159.012 0.966968 157.97 2.15875 158.062 3.53636L163.051 3.20129ZM139.875 50.5346L138.593 48.3882L139.875 50.5346ZM90.2298 44.207L92.5423 43.257L90.2298 44.207ZM96.4775 24.6276L97.5671 26.8777L96.4775 24.6276ZM113.681 30.1727L111.816 31.837L113.681 30.1727ZM93.8609 80.325L95.0414 82.5287L93.8609 80.325ZM47.5544 71.8545L45.2915 72.9172L47.5544 71.8545ZM51.7964 57.0007L53.2708 59.0197L51.7964 57.0007ZM43.9352 114.399L43.1908 112.012L43.9352 114.399ZM3.34546 107.255L2.96439 104.784C2.06295 104.923 1.30877 105.542 0.996524 106.399C0.684278 107.256 0.863523 108.215 1.46423 108.901L3.34546 107.255ZM17.1658 107.653C18.5304 107.442 19.466 106.165 19.2555 104.801C19.0451 103.436 17.7682 102.501 16.4037 102.711L17.1658 107.653ZM10.8686 119.646C11.778 120.685 13.3574 120.79 14.3964 119.881C15.4353 118.972 15.5404 117.392 14.6311 116.353L10.8686 119.646ZM160.557 3.36882C158.062 3.53636 158.062 3.53562 158.062 3.53501C158.062 3.53497 158.062 3.53449 158.062 3.53442C158.062 3.53428 158.062 3.53464 158.062 3.5355C158.062 3.53723 158.063 3.54096 158.063 3.54666C158.064 3.55808 158.065 3.5774 158.066 3.60442C158.069 3.65846 158.074 3.7433 158.079 3.85732C158.089 4.08538 158.101 4.42996 158.109 4.87815C158.125 5.77492 158.123 7.08418 158.052 8.70306C157.909 11.9464 157.488 16.4028 156.378 21.2599C154.143 31.033 149.218 42.0438 138.593 48.3882L141.157 52.681C153.462 45.3329 158.878 32.7607 161.252 22.3741C162.446 17.1514 162.895 12.3837 163.047 8.92287C163.124 7.18968 163.126 5.77687 163.108 4.78958C163.099 4.29575 163.086 3.9078 163.074 3.63885C163.068 3.50436 163.063 3.39957 163.059 3.32611C163.057 3.28938 163.055 3.26047 163.054 3.23961C163.053 3.22917 163.052 3.22074 163.052 3.21435C163.052 3.21115 163.052 3.20846 163.051 3.20628C163.051 3.20519 163.051 3.20394 163.051 3.2034C163.051 3.20228 163.051 3.20129 160.557 3.36882ZM138.593 48.3882C130.213 53.3929 119.944 55.5961 111.087 54.7055C102.192 53.811 95.2704 49.8982 92.5423 43.257L87.9173 45.1569C91.6151 54.1587 100.683 58.6845 110.587 59.6804C120.531 60.6803 131.871 58.2259 141.157 52.681L138.593 48.3882ZM92.5423 43.257C91.7698 41.3767 91.3334 37.9729 92.0394 34.6049C92.7334 31.2939 94.4381 28.3929 97.5671 26.8777L95.388 22.3776C90.4487 24.7694 88.0488 29.2707 87.1457 33.5791C86.2546 37.8303 86.7284 42.2627 87.9173 45.1569L92.5423 43.257ZM97.5671 26.8777C100.552 25.4325 103.202 25.753 105.578 26.8605C108.052 28.014 110.195 30.0199 111.816 31.837L115.547 28.5084C113.757 26.5025 111.075 23.9065 107.69 22.3286C104.206 20.7045 99.9591 20.164 95.388 22.3776L97.5671 26.8777ZM111.816 31.837C118.056 38.8318 118.016 47.6832 113.914 56.3787C109.788 65.1265 101.68 73.2998 92.6803 78.1213L95.0414 82.5287C104.887 77.2544 113.806 68.3282 118.436 58.5119C123.091 48.6436 123.539 37.4667 115.547 28.5084L111.816 31.837ZM92.6803 78.1213C84.9756 82.2489 75.8753 84.1528 67.8857 83.1066C59.9538 82.068 53.2828 78.1718 49.8173 70.7919L45.2915 72.9172C49.6402 82.1777 58.02 86.8574 67.2365 88.0643C76.3954 89.2636 86.5412 87.0825 95.0414 82.5287L92.6803 78.1213ZM49.8173 70.7919C48.76 68.5404 48.5616 66.4423 49.0713 64.5666C49.5829 62.6838 50.8788 60.7666 53.2708 59.0197L50.3219 54.9818C47.2057 57.2576 45.1126 60.0672 44.2462 63.2555C43.378 66.4508 43.8127 69.7682 45.2915 72.9172L49.8173 70.7919ZM53.2708 59.0197C55.3429 57.5064 57.3337 57.2464 59.3242 57.7375C61.436 58.2585 63.6918 59.6712 65.9606 61.7902L69.3734 58.136C66.784 55.7177 63.7888 53.689 60.5218 52.883C57.1336 52.0471 53.6182 52.5746 50.3219 54.9818L53.2708 59.0197ZM65.9606 61.7902C73.2771 68.6234 72.8191 79.2463 67.4386 89.6929C62.0802 100.097 52.3388 109.159 43.1908 112.012L44.6797 116.785C55.4112 113.438 66.076 103.258 71.8836 91.9824C77.6691 80.7495 79.1373 67.255 69.3734 58.136L65.9606 61.7902ZM43.1908 112.012C36.1493 114.209 26.6308 112.63 18.4901 110.252C14.493 109.085 10.9641 107.766 8.43384 106.739C7.17034 106.226 6.15999 105.787 5.46954 105.479C5.1244 105.325 4.85949 105.203 4.68315 105.121C4.59498 105.08 4.52899 105.049 4.48621 105.029C4.46482 105.019 4.44924 105.011 4.43959 105.007C4.43476 105.004 4.43142 105.003 4.42959 105.002C4.42867 105.002 4.42812 105.001 4.42795 105.001C4.42787 105.001 4.42803 105.001 4.42799 105.001C4.42824 105.001 4.42859 105.002 3.34546 107.255C2.26234 109.508 2.26288 109.508 2.26351 109.508C2.26385 109.509 2.26458 109.509 2.26526 109.509C2.26661 109.51 2.26834 109.511 2.27046 109.512C2.27469 109.514 2.28043 109.517 2.28768 109.52C2.30217 109.527 2.32266 109.537 2.34902 109.549C2.40175 109.574 2.47797 109.61 2.57662 109.656C2.77392 109.747 3.06105 109.879 3.42963 110.044C4.16657 110.373 5.2302 110.835 6.55299 111.372C9.19531 112.445 12.8882 113.825 17.0882 115.052C25.3415 117.463 36.1179 119.456 44.6797 116.785L43.1908 112.012ZM3.72654 109.726L17.1658 107.653L16.4037 102.711L2.96439 104.784L3.72654 109.726ZM1.46423 108.901L10.8686 119.646L14.6311 116.353L5.22669 105.608L1.46423 108.901Z" fill="#2B59FF"/>
</svg>
