<svg width="1140" height="313" viewBox="0 0 1140 313" fill="none" xmlns="http://www.w3.org/2000/svg">
<path fill-rule="evenodd" clip-rule="evenodd" d="M303.849 184.329C254.872 212.524 198.325 240.583 143.927 247.589C97.4314 253.569 52.5213 244.281 15.7618 204.762C10.58 199.198 4.09101 203.023 1.28865 213.321C-1.51797 223.61 0.4129 236.494 5.59469 242.067C45.6948 285.165 94.5906 296.439 145.306 289.907C200.683 282.782 258.251 254.536 308.21 225.934C314.007 249.251 326.011 270.991 347.157 287.031C379.636 311.672 423.983 311.367 470.7 297.481C538.456 277.353 611.343 229.352 658.206 195.245C660.128 193.854 662.99 191.64 666.493 188.722C667.561 193.405 668.757 198.019 670.081 202.548C681.573 242.025 701.907 273.943 722.626 285.344C854.029 357.629 1007.39 271.017 1132.26 200.529C1137.9 197.332 1141.18 185.593 1139.6 174.337C1137.98 163.081 1132.09 156.541 1126.4 159.739C1005.04 228.258 856.036 314.709 728.307 244.467C712.586 235.815 697.293 211.285 688.579 181.326C687.596 177.984 686.742 174.566 685.93 171.096C703.146 154.157 723.394 130.543 734.288 105.266C745.48 79.3525 748.257 51.6919 738.517 25.5666C730.144 3.23286 717.456 1.3328 704.256 12.9111C690.031 25.3121 675.378 54.304 670.637 67.9095C661.751 93.3223 658.932 120.89 660.555 147.77C656.369 151.282 652.968 153.894 650.871 155.421C605.034 188.773 533.791 235.85 467.539 255.537C424.91 268.21 384.416 269.897 354.778 247.419C342.138 237.826 333.786 226.63 329.254 213.635C338.199 208.325 346.824 203.1 355.064 198.112C371.362 188.247 405.293 171.919 429.536 142.817C448.815 119.677 461.887 88.1994 461.127 48.74C460.738 28.4675 454.83 14.9381 445.427 7.35494C431.377 -3.96885 407.079 1.51056 398.031 5.32757C370.588 16.8804 333.961 64.7035 315.84 118.591C308.608 140.094 304.306 162.589 303.849 184.329ZM326.391 171.079C334.145 166.448 341.638 161.901 348.836 157.541C364.048 148.33 395.848 133.698 418.485 106.521C430.471 92.1348 440.258 74.8991 439.784 50.36C439.746 48.4515 438.793 47.9088 437.952 47.1284C436.649 45.9324 435.158 45.1094 433.569 44.4647C422.816 40.1049 408.373 44.3204 402.461 46.8141C379.435 56.5093 348.806 96.9273 333.602 142.146C330.39 151.697 327.831 161.426 326.391 171.079ZM681.658 128.244C691.697 117.989 702.206 105.588 710.493 92.0925C714.893 84.925 718.61 77.5542 720.96 69.9032C722.925 63.5754 723.693 57.0946 721.344 50.8347C720.404 48.2985 718.995 48.2479 717.542 48.723C716.004 49.2319 714.423 50.3173 712.843 51.7169C702.419 60.8268 691.654 82.1089 688.194 92.0925C684.136 103.671 682.128 115.919 681.658 128.244Z" fill="white" fill-opacity="0.05"/>
</svg>
