<svg width="14" height="13" viewBox="0 0 14 13" fill="none" xmlns="http://www.w3.org/2000/svg">
<path d="M7.00723 3.26133C5.27598 3.26133 3.89639 4.66797 3.89639 6.37217C3.89639 8.10342 5.27598 9.48301 7.00723 9.48301C8.71143 9.48301 10.1181 8.10342 10.1181 6.37217C10.1181 4.66797 8.71143 3.26133 7.00723 3.26133ZM7.00723 8.40098C5.89815 8.40098 4.97842 7.5083 4.97842 6.37217C4.97842 5.26309 5.8711 4.37041 7.00723 4.37041C8.11631 4.37041 9.00899 5.26309 9.00899 6.37217C9.00899 7.5083 8.11631 8.40098 7.00723 8.40098ZM10.9566 3.15313C10.9566 2.74736 10.632 2.42275 10.2263 2.42275C9.82051 2.42275 9.4959 2.74736 9.4959 3.15313C9.4959 3.55889 9.82051 3.8835 10.2263 3.8835C10.632 3.8835 10.9566 3.55889 10.9566 3.15313ZM13.0125 3.8835C12.9584 2.90967 12.742 2.04404 12.0387 1.34072C11.3354 0.637403 10.4697 0.420997 9.4959 0.366895C8.49503 0.312793 5.49239 0.312793 4.49151 0.366895C3.51768 0.420997 2.67911 0.637403 1.94874 1.34072C1.24542 2.04404 1.02901 2.90967 0.974909 3.8835C0.920807 4.88438 0.920807 7.88701 0.974909 8.88789C1.02901 9.86172 1.24542 10.7003 1.94874 11.4307C2.67911 12.134 3.51768 12.3504 4.49151 12.4045C5.49239 12.4586 8.49503 12.4586 9.4959 12.4045C10.4697 12.3504 11.3354 12.134 12.0387 11.4307C12.742 10.7003 12.9584 9.86172 13.0125 8.88789C13.0666 7.88701 13.0666 4.88438 13.0125 3.8835ZM11.7141 9.94287C11.5247 10.4839 11.0919 10.8896 10.5779 11.1061C9.76641 11.4307 7.87286 11.3495 7.00723 11.3495C6.11456 11.3495 4.221 11.4307 3.43653 11.1061C2.89551 10.8896 2.48975 10.4839 2.27335 9.94287C1.94874 9.1584 2.02989 7.26484 2.02989 6.37217C2.02989 5.50654 1.94874 3.61299 2.27335 2.80147C2.48975 2.2875 2.89551 1.88174 3.43653 1.66533C4.221 1.34072 6.11456 1.42188 7.00723 1.42188C7.87286 1.42188 9.76641 1.34072 10.5779 1.66533C11.0919 1.85469 11.4977 2.2875 11.7141 2.80147C12.0387 3.61299 11.9575 5.50654 11.9575 6.37217C11.9575 7.26484 12.0387 9.1584 11.7141 9.94287Z" fill="white"/>
</svg>
