<svg width="30" height="30" viewBox="0 0 30 30" fill="none" xmlns="http://www.w3.org/2000/svg">
<g clip-path="url(#clip0_5_2009)">
<path d="M16.8776 30.0006H13.1283C12.2535 30.0006 11.2537 29.2507 11.2537 27.751V25.1265C11.2537 23.8768 10.6288 22.752 9.62898 21.8772C7.37942 20.1275 6.25464 17.628 6.25464 14.8785C6.37961 10.1294 10.2539 6.38018 14.878 6.2552C17.2525 6.2552 19.5021 7.13003 21.1267 8.75471C22.7514 10.3794 23.7512 12.629 23.7512 15.0035C23.7512 17.628 22.6264 20.1275 20.5019 21.7522C19.3771 22.627 18.7522 24.0017 18.7522 25.2515V28.1259C18.7522 29.1257 17.8774 30.0006 16.8776 30.0006ZM15.0029 7.50496C11.0037 7.50496 7.62937 10.8793 7.50439 14.8785C7.50439 17.2531 8.5042 19.5026 10.3788 20.8773C11.7536 22.0021 12.5034 23.5018 12.5034 25.1265V27.751C12.5034 28.001 12.5034 28.7508 13.1283 28.7508H16.8776C17.2525 28.7508 17.5024 28.5009 17.5024 28.1259V25.2515C17.5024 23.6268 18.3773 21.8772 19.752 20.7524C21.5017 19.3776 22.5015 17.2531 22.5015 15.0035C22.5015 13.0039 21.7516 11.1293 20.2519 9.62954C18.8772 8.25481 17.0025 7.50496 15.0029 7.50496Z" fill="#2B59FF"/>
<path d="M18.1273 26.2513H11.8785C11.5036 26.2513 11.2537 26.0014 11.2537 25.6264C11.2537 25.2515 11.5036 25.0016 11.8785 25.0016H18.1273C18.5022 25.0016 18.7522 25.2515 18.7522 25.6264C18.7522 26.0014 18.5022 26.2513 18.1273 26.2513Z" fill="#2B59FF"/>
<path d="M15.0029 3.75572C14.628 3.75572 14.3781 3.50577 14.3781 3.13084V0.631332C14.3781 0.256406 14.628 0.00645447 15.0029 0.00645447C15.3779 0.00645447 15.6278 0.256406 15.6278 0.631332V3.13084C15.6278 3.50577 15.3779 3.75572 15.0029 3.75572Z" fill="#2B59FF"/>
<path d="M23.3763 7.25509C23.2513 7.25509 23.0013 7.25509 22.8764 7.13011C22.6264 6.88016 22.6264 6.50523 22.8764 6.25528L24.626 4.50562C24.876 4.25567 25.2509 4.25567 25.5009 4.50562C25.7508 4.75558 25.7508 5.1305 25.5009 5.38045L23.7512 7.13011C23.7512 7.13011 23.5012 7.25509 23.3763 7.25509Z" fill="#2B59FF"/>
<path d="M29.3751 15.6284H26.8756C26.5007 15.6284 26.2507 15.3785 26.2507 15.0036C26.2507 14.6286 26.5007 14.3787 26.8756 14.3787H29.3751C29.75 14.3787 30 14.6286 30 15.0036C30 15.3785 29.75 15.6284 29.3751 15.6284Z" fill="#2B59FF"/>
<path d="M25.1259 25.7515C25.001 25.7515 24.751 25.7515 24.626 25.6265L22.8764 23.8769C22.6264 23.6269 22.6264 23.252 22.8764 23.002C23.1263 22.7521 23.5012 22.7521 23.7512 23.002L25.5009 24.7517C25.7508 25.0016 25.7508 25.3766 25.5009 25.6265C25.5009 25.7515 25.3759 25.7515 25.1259 25.7515Z" fill="#2B59FF"/>
<path d="M4.87993 25.7515C4.75496 25.7515 4.505 25.7515 4.38003 25.6265C4.13008 25.3766 4.13008 25.0016 4.38003 24.7517L6.12969 23.002C6.37964 22.7521 6.75457 22.7521 7.00452 23.002C7.25447 23.252 7.25447 23.6269 7.00452 23.8769L5.25486 25.6265C5.12988 25.7515 5.00491 25.7515 4.87993 25.7515Z" fill="#2B59FF"/>
<path d="M3.13025 15.6284H0.630737C0.255811 15.6284 0.00585938 15.3785 0.00585938 15.0036C0.00585938 14.6286 0.255811 14.3787 0.630737 14.3787H3.13025C3.50518 14.3787 3.75513 14.6286 3.75513 15.0036C3.75513 15.3785 3.50518 15.6284 3.13025 15.6284Z" fill="#2B59FF"/>
<path d="M6.62959 7.25503C6.50461 7.25503 6.25466 7.25503 6.12969 7.13006L4.38003 5.25542C4.13008 5.00547 4.13008 4.63055 4.38003 4.38059C4.62998 4.13064 5.00491 4.13064 5.25486 4.38059L7.00452 6.13025C7.25447 6.3802 7.25447 6.75513 7.00452 7.00508C6.87954 7.13006 6.75457 7.25503 6.62959 7.25503Z" fill="#2B59FF"/>
<path d="M20.002 15.6284C19.627 15.6284 19.3771 15.3785 19.3771 15.0035C19.3771 12.629 17.3775 10.6294 15.0029 10.6294C14.628 10.6294 14.3781 10.3794 14.3781 10.0045C14.3781 9.62959 14.628 9.37964 15.0029 9.37964C18.1273 9.37964 20.6268 11.8792 20.6268 15.0035C20.6268 15.3785 20.3769 15.6284 20.002 15.6284Z" fill="#2B59FF"/>
</g>
<defs>
<clipPath id="clip0_5_2009">
<rect width="29.9941" height="29.9941" fill="white" transform="translate(0.00585938 0.00646973)"/>
</clipPath>
</defs>
</svg>
