<svg width="13" height="13" viewBox="0 0 13 13" fill="none" xmlns="http://www.w3.org/2000/svg">
<path d="M11.7512 0.312793H1.33663C0.87677 0.312793 0.498059 0.718555 0.498059 1.20547V11.5659C0.498059 12.0528 0.87677 12.4315 1.33663 12.4315H11.7512C12.211 12.4315 12.6168 12.0528 12.6168 11.5659V1.20547C12.6168 0.718555 12.211 0.312793 11.7512 0.312793ZM4.14991 10.7003H2.36456V4.93848H4.14991V10.7003ZM3.25724 4.12695C2.66212 4.12695 2.20226 3.66709 2.20226 3.09902C2.20226 2.53096 2.66212 2.04404 3.25724 2.04404C3.82531 2.04404 4.28517 2.53096 4.28517 3.09902C4.28517 3.66709 3.82531 4.12695 3.25724 4.12695ZM10.8856 10.7003H9.07316V7.88701C9.07316 7.23779 9.07316 6.37217 8.15343 6.37217C7.20665 6.37217 7.0714 7.10254 7.0714 7.85996V10.7003H5.28605V4.93848H6.99025V5.72295H7.0173C7.26075 5.26309 7.85587 4.77617 8.7215 4.77617C10.5339 4.77617 10.8856 5.99346 10.8856 7.53535V10.7003Z" fill="white"/>
</svg>
