<svg width="24" height="24" viewBox="0 0 24 24" fill="none" xmlns="http://www.w3.org/2000/svg">
<path d="M12 8.25V15.75M15.75 12H8.25M23.25 12C23.25 13.4774 22.959 14.9403 22.3936 16.3052C21.8283 17.6701 20.9996 18.9103 19.955 19.955C18.9103 20.9996 17.6701 21.8283 16.3052 22.3936C14.9403 22.959 13.4774 23.25 12 23.25C10.5226 23.25 9.05972 22.959 7.69481 22.3936C6.3299 21.8283 5.08971 20.9996 4.04505 19.955C3.00039 18.9103 2.17172 17.6701 1.60636 16.3052C1.04099 14.9403 0.75 13.4774 0.75 12C0.75 9.01631 1.93526 6.15483 4.04505 4.04505C6.15483 1.93526 9.01631 0.75 12 0.75C14.9837 0.75 17.8452 1.93526 19.955 4.04505C22.0647 6.15483 23.25 9.01631 23.25 12Z" stroke="#9E9E9F" stroke-width="1.5" stroke-linecap="round" stroke-linejoin="round"/>
</svg>
