<svg width="30" height="30" viewBox="0 0 30 30" fill="none" xmlns="http://www.w3.org/2000/svg">
<g clip-path="url(#clip0_5_1988)">
<path d="M16.8567 21.616H10.1263C9.80053 21.616 9.53644 21.8802 9.53644 22.206C9.53644 22.5318 9.80053 22.796 10.1263 22.796H16.8567C17.1825 22.796 17.4466 22.5318 17.4466 22.206C17.4466 21.8802 17.1825 21.616 16.8567 21.616Z" fill="#8000FF"/>
<path d="M6.97873 25.2307C6.97873 25.5565 7.24282 25.8207 7.56859 25.8207H10.8616C11.1874 25.8207 11.4515 25.5565 11.4515 25.2307C11.4515 24.9049 11.1874 24.6407 10.8616 24.6407H7.56859C7.24282 24.6407 6.97873 24.9049 6.97873 25.2307Z" fill="#8000FF"/>
<path d="M15.5316 25.2307C15.5316 25.5565 15.7957 25.8207 16.1214 25.8207H19.4145C19.7402 25.8207 20.0043 25.5565 20.0043 25.2307C20.0043 24.9049 19.7402 24.6407 19.4145 24.6407H16.1214C15.7957 24.6407 15.5316 24.9049 15.5316 25.2307Z" fill="#8000FF"/>
<path d="M13.4857 24.6407C13.1599 24.6407 12.8958 24.9049 12.8958 25.2307C12.8958 25.5565 13.1599 25.8207 13.4857 25.8207H13.4973C13.8231 25.8207 14.0872 25.5565 14.0872 25.2307C14.0872 24.9049 13.8231 24.6407 13.4973 24.6407H13.4857Z" fill="#8000FF"/>
<path d="M1.51206 9.75605C1.83784 9.75605 2.10193 9.4919 2.10193 9.16606V9.1544C2.10193 8.82857 1.83784 8.56442 1.51206 8.56442C1.18628 8.56442 0.922195 8.82857 0.922195 9.1544V9.16606C0.922195 9.4919 1.18628 9.75605 1.51206 9.75605Z" fill="#8000FF"/>
<path d="M28.3778 23.2746L25.7273 20.6241V5.68475C25.7273 5.66589 25.7262 5.64714 25.7244 5.62846C25.7237 5.62061 25.7223 5.61293 25.7213 5.6052C25.7199 5.59471 25.7185 5.58428 25.7166 5.57392C25.7148 5.56454 25.7125 5.55534 25.7102 5.54615C25.7082 5.53771 25.7061 5.52928 25.7037 5.52096C25.7009 5.51123 25.6978 5.50168 25.6944 5.49213C25.6918 5.48452 25.689 5.4769 25.6861 5.46935C25.6824 5.45991 25.6785 5.4506 25.6743 5.4414C25.6709 5.4339 25.6672 5.42646 25.6636 5.41908C25.6592 5.41041 25.6546 5.40174 25.6498 5.39331C25.6455 5.38557 25.6408 5.37808 25.636 5.37052C25.6312 5.36284 25.6264 5.35517 25.6212 5.34773C25.6156 5.3397 25.6096 5.33191 25.6036 5.32412C25.5985 5.31762 25.5936 5.31106 25.5883 5.30473C25.5869 5.30297 25.5856 5.30116 25.5842 5.2994L21.1924 0.20473C21.1886 0.200395 21.1844 0.196587 21.1805 0.192369C21.172 0.183172 21.1636 0.174033 21.1545 0.165363C21.1485 0.159563 21.1423 0.154056 21.136 0.148549C21.1271 0.140641 21.118 0.132908 21.1085 0.125527C21.1021 0.120489 21.0955 0.115626 21.0889 0.110822C21.0788 0.103617 21.0685 0.0967627 21.058 0.0901429C21.0517 0.0861593 21.0453 0.0821757 21.0388 0.0784265C21.0272 0.0718066 21.0153 0.0656555 21.0032 0.0597973C20.9972 0.0569267 20.9914 0.0538805 20.9854 0.0511857C20.9721 0.0452689 20.9585 0.040055 20.9447 0.0351341C20.9394 0.0332009 20.9343 0.0310919 20.9289 0.0293345C20.9142 0.0245307 20.8991 0.0205471 20.8838 0.0168564C20.8791 0.0156848 20.8744 0.0142202 20.8696 0.0132243C20.8537 0.00976799 20.8373 0.00730753 20.8208 0.00525715C20.8166 0.00472991 20.8125 0.00379259 20.8083 0.00332393C20.7876 0.00121497 20.7668 -1.52588e-05 20.7456 -1.52588e-05H3.56022C2.10562 -1.52588e-05 0.922195 1.18434 0.922195 2.64017V6.52476C0.922195 6.8506 1.18628 7.11475 1.51206 7.11475C1.83784 7.11475 2.10193 6.8506 2.10193 6.52476V2.64017C2.10193 1.83496 2.75611 1.17995 3.56022 1.17995H20.1558V4.98259C20.1558 5.69512 20.7361 6.27479 21.4494 6.27479H24.5475V19.4444L23.2517 18.1486C23.2485 18.1452 23.2457 18.1416 23.2424 18.1383C23.2391 18.135 23.2354 18.1321 23.232 18.1289L20.4506 15.3476C21.0197 14.2608 21.3422 13.0254 21.3422 11.7159C21.3422 7.38674 17.8208 3.86472 13.4924 3.86472C9.16309 3.86472 5.641 7.38674 5.641 11.7159C5.641 13.7823 6.44352 15.6644 7.75266 17.068C7.77961 17.104 7.81077 17.137 7.84586 17.1664C9.27463 18.6466 11.2777 19.5688 13.4924 19.5688C14.8012 19.5688 16.0358 19.2463 17.1219 18.6773L19.9023 21.4588C19.9057 21.4623 19.9085 21.4661 19.912 21.4695C19.9154 21.4729 19.9191 21.4757 19.9226 21.4791L24.5476 26.1058V27.354C24.5476 28.1592 23.8934 28.8142 23.0893 28.8142H3.56022C2.75611 28.8142 2.10193 28.1592 2.10193 27.354V11.784C2.10193 11.4582 1.83784 11.194 1.51206 11.194C1.18628 11.194 0.922195 11.4582 0.922195 11.784V27.3539C0.922195 28.8098 2.10562 29.9941 3.56022 29.9941H23.0893C24.5439 29.9941 25.7273 28.8098 25.7273 27.3539V27.1094C26.0506 27.2751 26.3785 27.3487 26.6954 27.3487C27.3227 27.3487 27.9067 27.0628 28.3242 26.6449C29.1538 25.8148 29.4545 24.3515 28.3778 23.2746ZM21.3356 4.98259V2.17778L23.85 5.09483H21.4494C21.3877 5.09483 21.3356 5.04339 21.3356 4.98259ZM13.4924 5.04462C17.1702 5.04462 20.1624 8.03736 20.1624 11.7159C20.1624 12.9348 19.8337 14.0784 19.2607 15.0629C19.2191 15.1122 19.1866 15.1667 19.1637 15.2241C19.0476 15.4112 18.9225 15.5922 18.7891 15.7664C18.0878 14.4692 16.9447 13.4792 15.5917 12.9593C16.391 12.3166 16.9039 11.3316 16.9039 10.2284C16.9039 8.29571 15.3326 6.7233 13.4011 6.7233C11.4688 6.7233 9.89665 8.29565 9.89665 10.2284C9.89665 11.3304 10.4087 12.3146 11.207 12.9573C10.7422 13.1358 10.2981 13.371 9.88353 13.6622C9.14182 14.1833 8.53327 14.8521 8.08927 15.6256C7.29173 14.5261 6.82067 13.175 6.82067 11.7158C6.82067 8.03736 9.81358 5.04462 13.4924 5.04462ZM11.0763 10.2285C11.0763 8.94638 12.1192 7.90332 13.401 7.90332C14.682 7.90332 15.7241 8.94638 15.7241 10.2285C15.7241 11.5097 14.6821 12.5519 13.401 12.5519C12.1192 12.5519 11.0763 11.5096 11.0763 10.2285ZM8.92401 16.5743C9.7318 14.8597 11.4855 13.7319 13.401 13.7319C15.3724 13.7319 17.147 14.9073 17.9299 16.6931C17.6411 16.9511 17.3297 17.1844 16.9992 17.3896C16.9411 17.4127 16.8861 17.4456 16.8362 17.4878C15.8525 18.0604 14.7101 18.3888 13.4923 18.3888C11.7264 18.3888 10.1187 17.6987 8.92401 16.5743ZM18.9859 17.3194C19.0264 17.2882 19.0623 17.2521 19.0929 17.2123C19.3502 16.95 19.5893 16.6699 19.8081 16.3737L21.9905 18.556L20.3295 20.2174L18.1477 18.0347C18.4437 17.8158 18.7237 17.5767 18.9859 17.3194ZM27.4898 25.8107C27.1109 26.1899 26.4893 26.3787 25.8815 25.7714L21.1636 21.0517L22.8248 19.3903L24.7094 21.2749C24.7168 21.2826 24.7244 21.2903 24.7322 21.2977L27.5436 24.109C28.1479 24.7134 27.8425 25.4578 27.4898 25.8107Z" fill="#8000FF"/>
</g>
<defs>
<clipPath id="clip0_5_1988">
<rect width="29.9941" height="29.9941" fill="white"/>
</clipPath>
</defs>
</svg>
