<svg width="30" height="30" viewBox="0 0 30 30" fill="none" xmlns="http://www.w3.org/2000/svg">
<g clip-path="url(#clip0_5_1996)">
<path d="M14.9902 8.59245C14.6677 8.59245 14.4059 8.85429 14.4059 9.17684C14.4059 9.4994 14.6677 9.76123 14.9902 9.76123C15.3128 9.76123 15.5746 9.4994 15.5746 9.17684C15.5746 8.85429 15.3128 8.59245 14.9902 8.59245Z" fill="#14B082"/>
<path d="M25.1186 24.5604C25.7165 24.0249 26.0936 23.2478 26.0936 22.384C26.0936 20.7728 24.7828 19.4621 23.1717 19.4621C21.5605 19.4621 20.2497 20.7728 20.2497 22.384C20.2497 23.2489 20.6277 24.0269 21.227 24.5624C20.3184 24.98 19.5656 25.6799 19.0823 26.5498C18.6068 25.6926 17.8635 24.9852 16.9372 24.5604C17.5351 24.0249 17.9122 23.2478 17.9122 22.384C17.9122 20.7728 16.6014 19.4621 14.9902 19.4621C13.3791 19.4621 12.0683 20.7728 12.0683 22.384C12.0683 23.2489 12.4463 24.0269 13.0455 24.5624C12.137 24.98 11.3841 25.6799 10.9009 26.5498C10.4254 25.6926 9.68211 24.9852 8.75577 24.5604C9.35362 24.0249 9.73074 23.2478 9.73074 22.384C9.73074 20.7728 8.41997 19.4621 6.8088 19.4621C5.19762 19.4621 3.88686 20.7728 3.88686 22.384C3.88686 23.2489 4.26489 24.0269 4.86411 24.5624C3.25476 25.3018 2.1337 26.9281 2.1337 28.8123V29.3967C2.1337 29.7194 2.3953 29.981 2.71809 29.981H27.2624C27.5851 29.981 27.8468 29.7194 27.8468 29.3967V28.8123C27.8468 26.895 26.7038 25.2872 25.1186 24.5604ZM21.4185 22.384C21.4185 21.4173 22.2049 20.6308 23.1717 20.6308C24.1384 20.6308 24.9248 21.4173 24.9248 22.384C24.9248 23.3508 24.1384 24.1372 23.1717 24.1372C22.2049 24.1372 21.4185 23.3508 21.4185 22.384ZM13.2371 22.384C13.2371 21.4173 14.0235 20.6308 14.9902 20.6308C15.957 20.6308 16.7434 21.4173 16.7434 22.384C16.7434 23.3508 15.957 24.1372 14.9902 24.1372C14.0235 24.1372 13.2371 23.3508 13.2371 22.384ZM5.05564 22.384C5.05564 21.4173 5.84205 20.6308 6.8088 20.6308C7.77555 20.6308 8.56196 21.4173 8.56196 22.384C8.56196 23.3508 7.77555 24.1372 6.8088 24.1372C5.84205 24.1372 5.05564 23.3508 5.05564 22.384ZM6.8088 25.3059C8.74299 25.3059 10.3151 26.8708 10.3151 28.8123H3.30247C3.30247 26.8788 4.8753 25.3059 6.8088 25.3059ZM14.9902 25.3059C16.9244 25.3059 18.4966 26.8708 18.4966 28.8123H11.4839C11.4839 26.8788 13.0567 25.3059 14.9902 25.3059ZM19.6653 28.8123C19.6653 26.8788 21.2382 25.3059 23.1717 25.3059C25.1058 25.3059 26.678 26.8708 26.678 28.8123H19.6653Z" fill="#14B082"/>
<path d="M22.2156 5.49637C22.1469 5.28499 21.9641 5.13067 21.7438 5.09871L17.4458 4.47415L15.5187 0.395306C15.4221 0.190771 15.2162 0.0604248 14.9902 0.0604248C14.7642 0.0604248 14.5583 0.190771 14.4618 0.395306L12.5347 4.47415L8.23645 5.09871C8.0164 5.13067 7.83355 5.28499 7.76484 5.4966C7.6959 5.70798 7.75342 5.94037 7.91276 6.0956L11.0278 9.13144L10.2925 13.4182C10.2549 13.6376 10.345 13.8591 10.5249 13.9899C10.705 14.1207 10.9436 14.1378 11.1404 14.0344L14.9902 12.0105L18.8399 14.0344C19.039 14.1389 19.2773 14.1193 19.4553 13.9899C19.6352 13.8591 19.7254 13.6376 19.6879 13.4182L18.9527 9.13144L22.0677 6.0956C22.2271 5.94014 22.2844 5.70798 22.2156 5.49637ZM17.917 8.50894C17.7791 8.64316 17.7163 8.83651 17.7487 9.02621L18.3359 12.4488L15.2621 10.833C15.177 10.7883 15.0836 10.7659 14.9902 10.7659C14.8969 10.7659 14.8035 10.7883 14.7184 10.833L11.6449 12.4488L12.2317 9.02621C12.2644 8.83651 12.2014 8.64316 12.0637 8.50894L9.57667 6.08487L13.0131 5.58563C13.2069 5.55732 13.3738 5.43405 13.4576 5.25691L14.9902 2.01287L16.5231 5.25691C16.6067 5.43405 16.7735 5.55755 16.9673 5.58563L20.404 6.0851L17.917 8.50894Z" fill="#14B082"/>
<path d="M14.9902 5.52792C14.6675 5.52792 14.4059 5.78976 14.4059 6.11231V6.83937C14.4059 7.16215 14.6675 7.42376 14.9902 7.42376C15.313 7.42376 15.5746 7.16215 15.5746 6.83937V6.11231C15.5746 5.78953 15.313 5.52792 14.9902 5.52792Z" fill="#14B082"/>
<path d="M2.71809 8.00815C2.71809 8.33094 2.9797 8.59254 3.30248 8.59254H5.64003C5.96281 8.59254 6.22442 8.33094 6.22442 8.00815C6.22442 7.68537 5.96281 7.42377 5.64003 7.42377H3.30248C2.9797 7.42377 2.71809 7.68537 2.71809 8.00815Z" fill="#14B082"/>
<path d="M27.2624 8.00815C27.2624 7.68537 27.0008 7.42377 26.678 7.42377H24.3404C24.0176 7.42377 23.756 7.68537 23.756 8.00815C23.756 8.33094 24.0176 8.59254 24.3404 8.59254H26.678C27.0008 8.59254 27.2624 8.33094 27.2624 8.00815Z" fill="#14B082"/>
<path d="M6.60085 12.1771L4.57581 13.3459C4.2964 13.5073 4.20053 13.8645 4.36192 14.1442C4.52377 14.4245 4.88125 14.519 5.1602 14.3581L7.18501 13.1893C7.46465 13.0279 7.56053 12.6706 7.39914 12.391C7.23774 12.1116 6.88026 12.0157 6.60085 12.1771Z" fill="#14B082"/>
<path d="M24.8203 1.65818L22.7955 2.82696C22.5158 2.98835 22.4199 3.3456 22.5813 3.62524C22.7432 3.90556 23.1007 4.00007 23.3796 3.83913L25.4047 2.67036C25.6841 2.50897 25.7799 2.15172 25.6185 1.87208C25.4572 1.59267 25.0997 1.49679 24.8203 1.65818Z" fill="#14B082"/>
<path d="M4.36192 1.87208C4.20053 2.15172 4.2964 2.50897 4.57581 2.67036L6.60085 3.83914C6.88049 4.00053 7.23774 3.90466 7.39914 3.62525C7.56053 3.34561 7.46465 2.98835 7.18501 2.82696L5.1602 1.65819C4.88079 1.49702 4.52331 1.59267 4.36192 1.87208Z" fill="#14B082"/>
<path d="M23.3796 12.1771C23.1002 12.0159 22.7427 12.1116 22.5813 12.391C22.4199 12.6706 22.5158 13.0279 22.7955 13.1893L24.8203 14.3581C25.0999 14.5195 25.4572 14.4236 25.6185 14.1442C25.7799 13.8645 25.6841 13.5073 25.4047 13.3459L23.3796 12.1771Z" fill="#14B082"/>
<path d="M14.4059 15.0208V17.709C14.4059 18.0318 14.6675 18.2934 14.9902 18.2934C15.313 18.2934 15.5746 18.0318 15.5746 17.709V15.0208C15.5746 14.698 15.313 14.4364 14.9902 14.4364C14.6675 14.4364 14.4059 14.698 14.4059 15.0208Z" fill="#14B082"/>
</g>
<defs>
<clipPath id="clip0_5_1996">
<rect width="29.9206" height="29.9206" fill="white" transform="translate(0.0299072 0.0604248)"/>
</clipPath>
</defs>
</svg>
