<svg width="14" height="12" viewBox="0 0 14 12" fill="none" xmlns="http://www.w3.org/2000/svg">
<path d="M12.5833 3.55889C13.1243 3.15313 13.6112 2.66621 13.99 2.09814C13.503 2.31455 12.935 2.47686 12.3669 2.53096C12.962 2.1793 13.3948 1.63828 13.6112 0.962012C13.0702 1.28662 12.4481 1.53008 11.8259 1.66533C11.2849 1.09727 10.5545 0.772657 9.74299 0.772657C8.17404 0.772657 6.90266 2.04404 6.90266 3.61299C6.90266 3.82939 6.92971 4.0458 6.98381 4.26221C4.63039 4.12695 2.52043 2.99082 1.11379 1.28662C0.870331 1.69238 0.735077 2.1793 0.735077 2.72031C0.735077 3.69414 1.22199 4.55977 2.00646 5.07373C1.5466 5.04668 1.08674 4.93848 0.708026 4.72207V4.74912C0.708026 6.12871 1.68185 7.26484 2.98029 7.53535C2.76389 7.58945 2.49338 7.64355 2.24992 7.64355C2.06057 7.64355 1.89826 7.6165 1.70891 7.58945C2.06057 8.72559 3.11555 9.53711 4.35988 9.56416C3.38605 10.3216 2.16877 10.7814 0.84328 10.7814C0.599823 10.7814 0.383417 10.7544 0.167011 10.7273C1.41135 11.5389 2.89914 11.9987 4.52219 11.9987C9.74299 11.9987 12.5833 7.69766 12.5833 3.9376C12.5833 3.80234 12.5833 3.69414 12.5833 3.55889Z" fill="white"/>
</svg>
